
<svg width="2351" height="395" viewBox="0 0 2351 395" fill="none" xmlns="http://www.w3.org/2000/svg">
<path d="M95.2151 298.775C52.7501 298.775 23.1101 267.995 23.1101 223.25C23.1101 178.505 53.6051 147.725 97.4951 147.725C123.145 147.725 141.955 156.275 154.21 174.23V87.875H190.405V294.5H155.635V267.71C144.235 287.375 123.145 298.775 95.2151 298.775ZM61.0151 222.965C61.0151 253.175 78.9701 271.7 107.755 271.7C135.685 271.7 154.78 254.03 154.78 227.525V219.83C154.78 192.185 135.685 174.515 106.9 174.515C78.1151 174.515 61.0151 192.47 61.0151 222.965ZM309.246 298.775C257.091 298.775 224.886 271.415 224.886 224.675C224.886 175.94 257.376 147.725 307.536 147.725C358.551 147.725 388.761 173.66 388.761 219.26V232.37H260.226C261.651 256.595 280.461 271.7 310.386 271.7C332.616 271.7 349.146 263.15 357.981 246.905L386.481 260.015C371.946 285.095 345.726 298.775 309.246 298.775ZM260.226 209.285H352.281V207.86C352.281 184.205 333.756 171.095 307.251 171.095C279.321 171.095 261.651 185.63 260.226 209.285ZM492.049 298.775C451.294 298.775 423.649 285.38 410.254 260.585L435.049 246.62C445.309 263.72 464.689 273.125 494.044 273.125C517.129 273.125 528.529 266.285 528.529 254.6C528.529 244.625 522.544 240.92 506.014 238.64L463.834 233.795C433.054 229.805 417.094 216.41 417.094 192.47C417.094 165.11 442.459 147.725 486.634 147.725C523.399 147.725 550.189 159.41 561.589 179.645L538.219 194.465C527.674 180.5 511.144 172.805 484.069 172.805C461.839 172.805 450.724 178.79 450.724 190.475C450.724 199.88 457.849 204.44 472.384 206.15L516.559 211.28C548.764 215.555 562.159 228.95 562.159 252.035C562.159 280.25 538.789 298.775 492.049 298.775ZM598.732 294.5V152H634.927V294.5H598.732ZM597.022 128.345V91.865H636.637V128.345H597.022ZM749.727 354.35C693.297 354.35 669.927 339.53 669.927 317.3C669.927 304.475 677.907 294.5 694.152 289.655C681.897 284.525 675.627 275.69 675.627 264.29C675.627 249.185 685.317 238.925 701.847 233.51C688.452 224.96 681.042 212.135 681.042 196.46C681.042 166.82 707.832 147.725 752.292 147.725C767.682 147.725 780.792 150.005 791.622 154.28C796.182 137.75 809.577 127.775 831.237 127.775C834.657 127.775 837.507 128.06 841.212 128.915V155.135C837.222 154.28 833.232 153.71 828.387 153.71C817.842 153.71 810.432 156.56 806.157 162.26C817.557 170.525 823.542 182.21 823.542 196.46C823.542 226.1 796.467 246.05 752.292 246.05C738.042 246.05 725.787 244.055 715.242 240.35C709.542 242.63 706.122 246.62 706.122 251.75C706.122 259.445 712.392 264.29 727.782 264.29L786.207 264.575C821.832 264.575 839.502 278.54 839.502 305.045C839.502 336.68 811.287 354.35 749.727 354.35ZM699.567 310.745C699.567 326.135 718.092 332.12 752.007 332.12C793.047 332.12 807.012 324.425 807.012 311.03C807.012 299.915 799.032 294.5 781.077 294.5H722.367C718.092 294.5 714.102 294.215 710.397 293.645C702.987 297.92 699.567 303.905 699.567 310.745ZM716.382 196.46C716.382 213.275 730.062 224.675 752.292 224.675C774.522 224.675 787.917 213.56 787.917 196.745C787.917 179.645 774.522 169.1 752.292 169.1C730.062 169.1 716.382 179.645 716.382 196.46ZM872.599 294.5V152H907.654V182.495C919.339 159.41 939.859 147.725 968.359 147.725C1008.83 147.725 1030.2 170.525 1030.2 214.13V294.5H994.009V219.545C994.009 190.475 980.899 176.225 954.679 176.225C926.179 176.225 908.794 194.465 908.794 224.675V294.5H872.599Z" fill="white"/>
<g filter="url(#filter0_d_76_4)">
<rect x="1098" width="1249" height="387" rx="193.5" fill="#7C3AEE"/>
<path d="M1274.55 181.23H1250.33V154.155H1274.55V142.755C1274.55 129.645 1278.64 118.91 1286.81 110.55C1294.98 102.19 1307.33 98.01 1323.86 98.01C1327.47 98.01 1331.08 98.2 1334.69 98.58C1338.3 98.77 1341.81 98.96 1345.23 99.15V129.36C1340.48 128.79 1335.54 128.505 1330.41 128.505C1324.9 128.505 1320.91 129.835 1318.44 132.495C1316.16 134.965 1315.02 139.24 1315.02 145.32V154.155H1342.95V181.23H1315.02V301.5H1274.55V181.23ZM1360.63 154.155H1399.1V181.515H1399.67C1401.57 176.955 1404.14 172.775 1407.37 168.975C1410.6 164.985 1414.3 161.66 1418.48 159C1422.66 156.15 1427.13 153.965 1431.88 152.445C1436.63 150.925 1441.57 150.165 1446.7 150.165C1449.36 150.165 1452.3 150.64 1455.53 151.59V189.21C1453.63 188.83 1451.35 188.545 1448.69 188.355C1446.03 187.975 1443.47 187.785 1441 187.785C1433.59 187.785 1427.32 189.02 1422.19 191.49C1417.06 193.96 1412.88 197.38 1409.65 201.75C1406.61 205.93 1404.42 210.87 1403.09 216.57C1401.76 222.27 1401.1 228.445 1401.1 235.095V301.5H1360.63V154.155ZM1469.69 199.47C1470.26 189.97 1472.63 182.085 1476.81 175.815C1480.99 169.545 1486.31 164.51 1492.77 160.71C1499.23 156.91 1506.45 154.25 1514.43 152.73C1522.6 151.02 1530.77 150.165 1538.94 150.165C1546.35 150.165 1553.86 150.735 1561.46 151.875C1569.06 152.825 1575.99 154.82 1582.26 157.86C1588.53 160.9 1593.66 165.175 1597.65 170.685C1601.64 176.005 1603.64 183.13 1603.64 192.06V268.725C1603.64 275.375 1604.02 281.74 1604.78 287.82C1605.54 293.9 1606.87 298.46 1608.77 301.5H1567.73C1566.97 299.22 1566.3 296.94 1565.73 294.66C1565.35 292.19 1565.07 289.72 1564.88 287.25C1558.42 293.9 1550.82 298.555 1542.08 301.215C1533.34 303.875 1524.41 305.205 1515.29 305.205C1508.26 305.205 1501.7 304.35 1495.62 302.64C1489.54 300.93 1484.22 298.27 1479.66 294.66C1475.1 291.05 1471.49 286.49 1468.83 280.98C1466.36 275.47 1465.13 268.915 1465.13 261.315C1465.13 252.955 1466.55 246.115 1469.4 240.795C1472.44 235.285 1476.24 230.915 1480.8 227.685C1485.55 224.455 1490.87 222.08 1496.76 220.56C1502.84 218.85 1508.92 217.52 1515 216.57C1521.08 215.62 1527.07 214.86 1532.96 214.29C1538.85 213.72 1544.07 212.865 1548.63 211.725C1553.19 210.585 1556.8 208.97 1559.46 206.88C1562.12 204.6 1563.36 201.37 1563.17 197.19C1563.17 192.82 1562.41 189.4 1560.89 186.93C1559.56 184.27 1557.66 182.275 1555.19 180.945C1552.91 179.425 1550.15 178.475 1546.92 178.095C1543.88 177.525 1540.56 177.24 1536.95 177.24C1528.97 177.24 1522.7 178.95 1518.14 182.37C1513.58 185.79 1510.92 191.49 1510.16 199.47H1469.69ZM1563.17 229.395C1561.46 230.915 1559.27 232.15 1556.61 233.1C1554.14 233.86 1551.39 234.525 1548.35 235.095C1545.5 235.665 1542.46 236.14 1539.23 236.52C1536 236.9 1532.77 237.375 1529.54 237.945C1526.5 238.515 1523.46 239.275 1520.42 240.225C1517.57 241.175 1515 242.505 1512.72 244.215C1510.63 245.735 1508.92 247.73 1507.59 250.2C1506.26 252.67 1505.6 255.805 1505.6 259.605C1505.6 263.215 1506.26 266.255 1507.59 268.725C1508.92 271.195 1510.73 273.19 1513.01 274.71C1515.29 276.04 1517.95 276.99 1520.99 277.56C1524.03 278.13 1527.16 278.415 1530.39 278.415C1538.37 278.415 1544.55 277.085 1548.92 274.425C1553.29 271.765 1556.52 268.63 1558.61 265.02C1560.7 261.22 1561.93 257.42 1562.31 253.62C1562.88 249.82 1563.17 246.78 1563.17 244.5V229.395ZM1636.19 154.155H1674.38V174.105H1674.95C1680.27 166.505 1686.64 160.615 1694.05 156.435C1701.65 152.255 1710.29 150.165 1719.98 150.165C1729.29 150.165 1737.75 151.97 1745.35 155.58C1753.14 159.19 1759.03 165.555 1763.02 174.675C1767.39 168.215 1773.28 162.515 1780.69 157.575C1788.29 152.635 1797.22 150.165 1807.48 150.165C1815.27 150.165 1822.49 151.115 1829.14 153.015C1835.79 154.915 1841.49 157.955 1846.24 162.135C1850.99 166.315 1854.69 171.825 1857.35 178.665C1860.01 185.315 1861.34 193.39 1861.34 202.89V301.5H1820.87V217.995C1820.87 213.055 1820.68 208.4 1820.3 204.03C1819.92 199.66 1818.88 195.86 1817.17 192.63C1815.46 189.4 1812.89 186.835 1809.47 184.935C1806.24 183.035 1801.78 182.085 1796.08 182.085C1790.38 182.085 1785.72 183.225 1782.11 185.505C1778.69 187.595 1775.94 190.445 1773.85 194.055C1771.95 197.475 1770.62 201.465 1769.86 206.025C1769.29 210.395 1769 214.86 1769 219.42V301.5H1728.53V218.85C1728.53 214.48 1728.44 210.205 1728.25 206.025C1728.06 201.655 1727.2 197.665 1725.68 194.055C1724.35 190.445 1721.98 187.595 1718.56 185.505C1715.33 183.225 1710.48 182.085 1704.02 182.085C1702.12 182.085 1699.56 182.56 1696.33 183.51C1693.29 184.27 1690.25 185.885 1687.21 188.355C1684.36 190.635 1681.89 194.055 1679.8 198.615C1677.71 202.985 1676.66 208.78 1676.66 216V301.5H1636.19V154.155ZM1992.51 212.01C1990.61 201.75 1987.19 193.96 1982.25 188.64C1977.5 183.32 1970.19 180.66 1960.31 180.66C1953.85 180.66 1948.43 181.8 1944.06 184.08C1939.88 186.17 1936.46 188.83 1933.8 192.06C1931.33 195.29 1929.53 198.71 1928.39 202.32C1927.44 205.93 1926.87 209.16 1926.68 212.01H1992.51ZM1926.68 237.66C1927.25 250.77 1930.57 260.27 1936.65 266.16C1942.73 272.05 1951.47 274.995 1962.87 274.995C1971.04 274.995 1978.07 273 1983.96 269.01C1989.85 264.83 1993.46 260.46 1994.79 255.9H2030.42C2024.72 273.57 2015.98 286.205 2004.2 293.805C1992.42 301.405 1978.17 305.205 1961.45 305.205C1949.86 305.205 1939.41 303.4 1930.1 299.79C1920.79 295.99 1912.9 290.67 1906.44 283.83C1899.98 276.99 1894.95 268.82 1891.34 259.32C1887.92 249.82 1886.21 239.37 1886.21 227.97C1886.21 216.95 1888.01 206.69 1891.62 197.19C1895.23 187.69 1900.36 179.52 1907.01 172.68C1913.66 165.65 1921.55 160.14 1930.67 156.15C1939.98 152.16 1950.24 150.165 1961.45 150.165C1973.99 150.165 1984.91 152.635 1994.22 157.575C2003.53 162.325 2011.13 168.785 2017.02 176.955C2023.1 185.125 2027.47 194.435 2030.13 204.885C2032.79 215.335 2033.74 226.26 2032.98 237.66H1926.68ZM2088.33 253.62C2088.33 257.99 2089.19 261.79 2090.9 265.02C2092.8 268.06 2095.17 270.625 2098.02 272.715C2100.87 274.615 2104.1 276.04 2107.71 276.99C2111.51 277.94 2115.41 278.415 2119.4 278.415C2122.25 278.415 2125.19 278.13 2128.23 277.56C2131.46 276.8 2134.31 275.755 2136.78 274.425C2139.44 272.905 2141.63 271.005 2143.34 268.725C2145.05 266.255 2145.9 263.215 2145.9 259.605C2145.9 253.525 2141.82 248.965 2133.65 245.925C2125.67 242.885 2114.46 239.845 2100.02 236.805C2094.13 235.475 2088.33 233.955 2082.63 232.245C2077.12 230.345 2072.18 227.97 2067.81 225.12C2063.44 222.08 2059.93 218.375 2057.27 214.005C2054.61 209.445 2053.28 203.935 2053.28 197.475C2053.28 187.975 2055.08 180.185 2058.69 174.105C2062.49 168.025 2067.43 163.275 2073.51 159.855C2079.59 156.245 2086.43 153.775 2094.03 152.445C2101.63 150.925 2109.42 150.165 2117.4 150.165C2125.38 150.165 2133.08 150.925 2140.49 152.445C2148.09 153.965 2154.83 156.53 2160.72 160.14C2166.61 163.75 2171.46 168.595 2175.26 174.675C2179.25 180.565 2181.62 188.07 2182.38 197.19H2143.91C2143.34 189.4 2140.39 184.175 2135.07 181.515C2129.75 178.665 2123.48 177.24 2116.26 177.24C2113.98 177.24 2111.51 177.43 2108.85 177.81C2106.19 178 2103.72 178.57 2101.44 179.52C2099.35 180.47 2097.55 181.895 2096.03 183.795C2094.51 185.505 2093.75 187.88 2093.75 190.92C2093.75 194.53 2095.08 197.475 2097.74 199.755C2100.4 202.035 2103.82 203.935 2108 205.455C2112.37 206.785 2117.31 208.02 2122.82 209.16C2128.33 210.3 2133.93 211.535 2139.63 212.865C2145.52 214.195 2151.22 215.81 2156.73 217.71C2162.43 219.61 2167.47 222.175 2171.84 225.405C2176.21 228.445 2179.72 232.34 2182.38 237.09C2185.04 241.65 2186.37 247.35 2186.37 254.19C2186.37 263.88 2184.38 272.05 2180.39 278.7C2176.59 285.16 2171.55 290.385 2165.28 294.375C2159.01 298.365 2151.79 301.12 2143.62 302.64C2135.64 304.35 2127.47 305.205 2119.11 305.205C2110.56 305.205 2102.2 304.35 2094.03 302.64C2085.86 300.93 2078.55 298.08 2072.09 294.09C2065.82 290.1 2060.59 284.875 2056.41 278.415C2052.42 271.765 2050.24 263.5 2049.86 253.62H2088.33Z" fill="white"/>
</g>
<defs>
<filter id="filter0_d_76_4" x="1094" y="0" width="1257" height="395" filterUnits="userSpaceOnUse" color-interpolation-filters="sRGB">
<feFlood flood-opacity="0" result="BackgroundImageFix"/>
<feColorMatrix in="SourceAlpha" type="matrix" values="0 0 0 0 0 0 0 0 0 0 0 0 0 0 0 0 0 0 127 0" result="hardAlpha"/>
<feOffset dy="4"/>
<feGaussianBlur stdDeviation="2"/>
<feComposite in2="hardAlpha" operator="out"/>
<feColorMatrix type="matrix" values="0 0 0 0 0 0 0 0 0 0 0 0 0 0 0 0 0 0 0.25 0"/>
<feBlend mode="normal" in2="BackgroundImageFix" result="effect1_dropShadow_76_4"/>
<feBlend mode="normal" in="SourceGraphic" in2="effect1_dropShadow_76_4" result="shape"/>
</filter>
</defs>
</svg>
